P2 100 100 255
78 101 136 249 141 94 241 131 44 246 108 164 126 2 84 9 168 117 65 172 152 245 120 215 82 222 147 174 217 58 131 103 63 120 57 140 3 79 175 82 126 126 220 181 245 219 130 121 25 64 118 166 154 95 117 202 49 192 199 221 165 129 42 94 93 209 131 36 109 82 57 101 41 31 192 121 136 192 8 65 80 44 88 42 181 0 239 124 19 156 255 109 255 241 209 35 94 47 200 118 153 32 49 116 154 82 247 96 25 159 6 164 59 110 251 11 227 227 188 241 42 79 249 8 136 33 5 92 112 215 214 168 8 149 84 36 45 199 211 54 156 33 24 225 162 60 97 85 211 66 251 54 102 141 195 67 207 85 14 36 156 206 175 163 17 10 102 67 192 52 153 165 43 175 217 175 41 40 90 144 139 211 4 123 216 60 241 255 251 45 206 241 250 24 65 65 64 250 10 74 215 35 25 147 102 39 222 231 185 63 158 93 89 197 223 217 115 141 62 232 157 218 169 238 46 183 161 35 209 5 26 45 243 35 166 245 47 135 52 244 254 50 49 170 1 176 118 143 95 131 101 99 200 193 178 193 134 114 183 167 16 128 203 146 95 68 69 239 243 56 61 58 207 19 188 80 158 226 79 26 4 192 4 104 170 16 196 220 42 31 28 69 34 123 57 220 217 215 74 186 181 231 24 34 77 58 45 145 165 235 124 5 116 131 109 226 253 241 244 80 105 56 29 200 163 95 63 230 149 109 171 26 43 220 45 140 7 224 152 40 211 168 0 115 74 235 4 123 175 240 229 30 204 36 58 234 132 47 111 130 115 115 120 216 115 230 222 216 60 82 208 166 198 203 141 19 217 22 233 172 105 39 80 113 78 207 70 206 223 94 30 125 176 156 187 122 67 39 238 119 128 33 210 54 179 69 118 180 114 199 108 24 25 128 186 73 116 52 158 7 154 233 55 246 62 229 161 144 222 194 15 192 191 181 54 153 58 110 161 129 44 145 44 100 6 131 54 96 90 66 157 13 59 55 233 96 211 99 81 125 31 244 61 203 211 14 219 222 60 173 124 139 79 193 17 241 195 128 192 35 109 94 17 149 199 247 124 177 110 17 47 63 240 9 146 223 159 108 152 211 41 81 167 110 157 88 91 29 105 113 206 89 222 188 28 5 241 51 139 192 196 85 244 52 227 153 160 252 10 143 0 32 22 133 118 147 131 52 107 142 9 181 108 214 99 39 173 137 41 119 151 233 33 218 136 214 97 73 88 9 109 88 213 104 77 106 87 25 31 161 2 197 100 209 214 241 19 250 228 95 160 214 118 159 26 104 8 159 251 49 243 47 230 193 117 36 163 70 234 69 255 174 109 83 78 132 58 0 106 38 55 222 75 3 240 94 40 171 31 15 153 164 30 203 195 7 125 18 97 234 243 90 176 46 61 89 210 130 86 127 30 110 39 92 163 23 126 42 246 109 125 61 188 231 184 207 22 215 159 37 194 103 207 225 159 140 182 120 111 8 173 252 230 13 68 11 218 139 88 137 47 6 115 72 89 99 239 229 58 233 44 75 23 252 182 210 239 26 37 41 34 62 156 60 163 132 71 143 239 132 214 192 160 160 55 18 207 185 139 176 117 199 125 21 246 146 165 107 91 251 137 253 11 37 11 121 250 248 10 152 33 184 41 179 221 172 148 146 234 129 108 76 159 246 33 10 185 30 158 183 9 166 14 173 225 247 201 166 16 252 66 24 157 192 178 15 149 220 116 214 77 8 185 177 156 181 151 201 26 208 201 48 179 151 248 82 126 54 188 9 250 57 221 22 70 169 12 23 202 238 164 99 73 139 187 29 211 94 112 127 184 187 33 61 15 195 13 148 126 205 26 77 114 54 130 221 17 62 42 77 128 219 30 169 177 209 98 96 230 80 190 238 100 7 190 4 29 39 19 163 155 180 123 132 70 128 131 254 252 248 137 86 21 203 112 52 5 182 144 32 163 165 219 234 44 214 130 16 251 48 39 23 40 255 116 125 100 88 142 230 217 29 62 188 151 99 105 5 154 41 131 69 100 105 82 208 159 103 242 167 132 174 105 45 101 212 140 151 0 117 28 158 172 102 250 39 95 198 10 140 51 252 241 88 42 142 198 76 69 243 27 108 13 46 12 202 130 15 225 8 236 90 182 191 116 151 147 57 218 249 86 112 205 215 168 24 167 48 227 121 201 210 19 209 107 24 147 32 168 148 7 46 139 212 208 25 207 140 88 243 87 242 226 12 167 21 226 145 171 224 92 140 2 188 206 11 144 239 106 239 227 121 141 204 5 25 109 234 134 12 15 219 4 153 217 195 198 92 109 255 210 199 96 10 50 194 32 169 110 37 35 31 51 147 55 20 239 31 149 38 73 108 208 247 3 174 125 61 15 66 202 142 83 193 34 86 120 22 21 19 101 168 7 153 229 165 138 47 167 134 23 105 179 89 29 75 207 161 252 156 130 169 32 20 133 156 28 22 229 131 249 191 115 139 79 221 226 193 15 84 39 194 210 160 229 138 129 67 191 73 232 202 89 195 88 82 172 191 21 203 177 255 239 206 92 120 92 117 37 168 124 216 148 241 155 2 35 20 38 51 147 150 208 19 25 7 247 170 191 201 179 66 165 206 249 19 200 220 150 163 230 180 104 74 183 174 149 58 229 205 14 174 228 136 222 159 36 8 151 206 83 225 89 109 91 199 62 232 244 59 193 154 22 79 61 185 54 194 200 172 29 219 255 197 27 28 141 140 179 140 183 106 212 91 146 237 242 164 106 188 152 1 107 72 150 212 120 85 56 149 110 129 35 36 81 235 186 123 4 173 143 157 175 166 227 254 222 202 36 16 216 252 119 108 78 245 1 90 113 144 160 38 69 151 183 185 51 109 58 22 4 113 125 30 83 241 177 80 84 166 49 147 190 243 104 246 108 27 238 169 34 247 4 75 245 211 0 174 247 37 169 186 32 7 131 175 32 121 45 179 140 206 0 74 211 9 126 107 87 200 204 17 86 182 177 105 234 141 128 213 249 42 29 100 130 246 174 95 22 75 254 235 228 227 164 233 105 188 190 70 107 121 93 35 98 200 87 244 105 37 4 99 176 164 247 88 22 87 117 170 32 231 200 108 226 130 220 202 198 36 191 77 60 103 208 204 11 114 224 59 150 237 89 26 24 93 128 40 240 55 150 117 172 114 161 5 98 164 181 81 123 73 93 5 190 148 82 37 40 182 7 212 230 141 227 14 87 81 135 103 112 152 143 23 3 205 50 183 120 158 205 111 220 14 14 73 241 146 56 87 37 98 51 93 139 232 217 197 10 138 161 88 160 73 159 191 41 139 72 45 172 11 22 157 43 39 114 122 132 99 137 67 221 19 95 231 201 17 21 244 28 75 83 98 57 97 39 85 79 222 54 224 18 110 9 36 181 195 230 240 68 224 8 143 13 5 190 57 44 166 29 53 176 129 196 39 237 121 71 149 149 53 159 66 63 51 82 95 98 177 165 13 89 206 242 76 64 105 23 85 56 176 66 98 63 90 183 239 115 233 183 217 84 241 127 82 227 90 198 5 107 254 177 67 116 232 220 78 187 51 77 236 207 12 21 190 51 34 152 69 88 81 219 35 244 162 58 33 241 62 30 205 213 79 240 255 68 180 179 94 118 42 53 30 220 126 121 202 111 208 6 225 255 5 249 80 38 38 122 8 235 9 30 117 212 67 165 0 58 105 84 191 208 78 121 227 125 134 119 212 138 9 201 216 241 105 133 180 146 168 46 36 204 73 20 156 51 226 155 235 24 118 92 60 187 32 145 178 44 101 129 238 112 215 137 30 156 128 114 133 29 37 219 28 144 239 56 122 231 248 209 195 175 14 168 216 117 42 172 73 3 246 167 138 234 0 30 11 206 109 184 247 94 96 49 0 43 68 147 160 104 18 150 53 94 149 242 33 146 84 19 228 90 219 112 149 189 173 46 95 47 63 51 163 143 132 139 37 166 73 65 210 115 171 117 155 234 81 126 112 174 115 55 66 181 81 45 225 73 240 195 17 245 31 203 124 95 238 19 191 155 89 113 120 169 24 8 121 27 130 60 26 58 33 123 230 245 211 189 245 71 134 86 209 90 239 137 178 36 95 91 163 221 7 57 2 116 223 192 7 205 201 56 14 19 13 84 142 96 179 97 238 170 35 230 200 216 85 40 123 154 3 194 138 148 107 176 65 81 248 51 116 234 73 250 90 0 203 226 15 113 121 177 171 244 86 182 23 167 197 248 184 13 154 73 67 35 12 112 127 69 131 59 42 186 97 24 100 44 125 161 24 202 69 99 86 230 73 72 151 18 32 77 250 30 243 54 2 118 125 55 134 32 152 123 11 242 102 58 240 110 219 130 216 3 50 208 65 142 9 77 5 3 252 219 66 190 22 53 241 27 128 1 84 199 158 82 110 19 68 121 40 249 253 24 56 57 128 242 168 212 157 104 226 30 234 85 124 16 219 81 216 166 131 230 156 49 69 210 234 213 54 162 214 12 240 170 206 72 93 137 101 99 247 233 78 215 123 236 224 100 65 218 15 218 80 48 132 216 25 177 51 110 99 178 112 35 34 250 249 224 124 24 238 81 16 216 144 248 200 42 157 254 32 192 90 213 83 191 124 247 196 111 26 20 69 64 181 214 186 24 164 77 238 24 233 239 202 20 163 96 223 104 163 11 7 171 161 245 1 174 123 234 32 163 194 229 200 17 128 181 172 56 195 15 187 35 144 106 69 10 12 165 241 99 75 26 48 241 104 105 245 36 106 192 216 195 173 201 209 210 50 160 183 221 182 159 14 11 79 57 103 111 98 250 19 71 97 219 93 207 88 177 164 207 37 244 54 136 247 146 154 19 32 99 20 198 89 225 25 84 51 86 207 158 134 117 206 134 170 251 81 16 70 250 212 144 61 250 153 125 9 5 83 69 199 241 185 114 7 21 60 1 130 134 194 8 209 215 227 88 131 40 21 9 21 120 18 71 204 87 164 1 22 130 223 40 136 19 134 153 184 102 245 6 151 36 65 219 193 22 193 102 97 23 248 101 97 100 253 15 54 2 12 81 162 191 244 146 13 34 65 219 175 12 49 175 137 195 182 152 1 155 199 66 112 127 235 223 144 172 72 211 17 213 189 104 146 102 18 79 29 116 32 45 33 149 182 206 51 78 102 44 28 219 53 84 176 37 243 233 46 210 251 98 205 168 91 16 219 151 183 150 138 247 147 55 94 205 120 143 23 60 174 67 223 153 187 199 40 171 231 192 71 109 203 55 210 131 120 243 45 245 55 122 214 155 134 231 182 201 241 72 223 95 202 83 84 98 247 12 231 59 149 92 246 224 27 5 141 162 166 230 59 220 157 94 177 219 126 184 158 76 209 254 212 63 163 101 190 64 111 244 117 104 69 206 101 3 116 31 171 70 61 189 13 85 127 119 67 11 84 69 144 192 124 10 207 29 93 65 202 194 52 141 137 156 242 127 248 167 38 125 15 137 24 229 65 238 239 214 9 193 107 145 139 154 161 148 83 111 215 100 37 72 222 48 152 64 176 116 153 162 137 216 91 46 78 183 148 236 66 212 209 163 11 178 234 128 70 184 79 61 238 210 117 232 250 216 80 222 47 34 155 167 40 95 76 70 230 139 26 96 126 61 8 126 138 132 43 159 0 4 72 105 254 118 228 33 97 251 112 13 173 65 201 243 4 96 17 248 108 99 35 143 138 11 155 41 193 225 188 123 119 9 126 70 23 92 255 75 2 52 237 33 150 227 216 204 41 179 227 192 145 86 227 189 238 61 79 254 86 157 219 207 173 245 245 14 200 165 188 134 255 169 76 199 25 246 31 167 124 253 28 214 219 149 206 18 15 174 30 220 149 56 108 105 139 242 12 184 107 9 210 59 85 44 71 67 30 234 127 144 98 147 55 10 218 72 191 112 212 106 78 194 13 219 45 139 143 237 125 181 5 239 117 182 4 200 2 184 66 27 197 23 7 206 230 185 2 226 23 103 101 130 3 165 54 240 75 120 198 226 84 33 33 101 119 151 17 52 184 15 107 89 176 76 7 14 128 146 52 123 233 121 52 37 83 176 139 78 98 191 163 183 183 18 29 100 122 244 119 1 96 93 245 100 33 230 162 120 142 210 55 228 160 225 243 71 161 185 34 60 252 67 148 202 187 55 229 185 138 102 228 74 2 194 1 241 188 20 57 225 247 203 231 212 45 183 65 235 3 235 59 122 255 163 90 60 174 146 101 87 236 198 42 159 62 74 33 59 248 224 182 107 154 231 66 193 185 49 81 178 107 98 40 198 155 236 94 59 231 222 167 170 42 140 159 95 236 204 200 37 77 85 179 84 213 136 251 200 111 92 131 17 174 202 188 53 28 201 95 254 239 184 5 21 230 231 111 41 205 245 221 137 20 220 74 39 9 250 1 114 9 15 230 166 129 128 63 130 138 220 220 124 111 145 25 178 146 246 146 234 218 136 74 64 84 130 233 1 120 55 203 154 103 219 120 16 135 150 96 128 84 218 97 204 11 131 250 254 118 113 204 236 165 20 0 213 13 83 116 119 91 187 204 94 102 158 40 250 22 133 193 215 34 194 61 147 155 33 123 235 123 207 132 137 39 90 61 211 183 241 219 148 65 188 217 58 124 225 151 125 178 95 172 168 74 63 132 139 139 193 90 58 214 7 56 225 236 165 254 50 240 96 186 195 70 111 140 46 56 125 195 188 183 244 210 68 197 154 236 82 207 81 157 235 237 101 167 122 233 169 191 10 159 172 135 250 26 130 9 180 77 54 113 63 197 209 107 37 87 204 102 107 53 108 85 44 68 223 22 82 167 151 232 166 14 216 175 216 109 107 179 178 78 195 12 116 162 176 83 72 114 60 143 203 184 164 176 142 210 137 53 13 239 48 217 50 77 162 196 30 72 191 181 215 91 210 233 192 116 109 187 185 144 145 39 100 222 196 79 96 219 246 134 48 83 170 140 83 34 192 81 142 105 128 200 197 37 111 130 41 71 59 18 139 232 247 7 176 254 179 38 149 42 250 146 126 189 41 53 121 254 53 43 66 122 109 29 68 48 15 245 64 0 200 1 180 31 165 161 130 143 62 59 246 158 93 8 113 204 162 176 124 0 109 42 91 245 30 196 22 209 202 150 105 148 125 25 233 12 125 98 249 166 196 251 182 254 190 227 48 218 137 111 186 141 13 71 90 119 172 107 114 228 238 229 166 19 74 80 154 169 128 11 163 156 122 171 149 211 146 93 104 172 34 192 69 140 50 88 63 118 130 12 212 180 153 112 134 20 102 97 25 89 82 118 130 99 142 180 200 92 22 16 146 56 55 16 205 230 140 186 200 144 212 236 206 166 64 157 63 51 56 27 236 74 185 142 222 34 162 59 125 66 55 163 136 114 180 64 115 129 35 59 37 47 238 231 173 29 184 112 65 139 252 117 207 109 228 194 145 22 117 84 218 212 75 33 65 19 184 236 210 113 156 192 151 172 232 7 109 209 87 223 199 20 212 130 6 127 150 157 83 101 60 20 12 85 109 105 118 228 248 138 92 99 210 79 218 32 106 43 172 119 199 37 103 111 49 98 134 67 206 92 150 0 182 85 232 163 174 43 33 223 217 214 192 175 90 114 158 248 131 94 78 176 238 69 252 251 25 68 206 123 186 24 146 138 11 34 169 158 109 235 32 208 190 2 10 52 102 201 40 182 120 102 61 29 232 174 234 93 26 228 228 127 184 237 174 19 104 92 24 65 58 38 22 176 208 1 76 61 154 64 8 3 111 176 162 138 216 151 222 136 77 244 174 185 20 195 121 187 200 223 145 177 94 122 122 25 55 29 196 177 69 39 207 6 82 34 163 248 48 129 215 213 12 120 129 195 202 18 150 148 197 196 62 164 95 142 141 209 200 117 191 188 17 222 166 223 156 133 71 85 73 81 161 154 127 187 227 2 58 216 225 194 32 125 14 231 106 139 42 242 53 126 230 228 169 78 118 138 73 181 204 42 135 203 62 92 83 72 42 83 147 32 56 151 241 208 102 92 27 9 236 242 210 98 175 28 254 170 213 199 143 143 216 98 71 49 65 98 137 162 204 252 127 245 151 89 6 181 143 47 171 194 224 117 196 9 181 250 35 134 236 169 61 3 119 233 249 33 172 117 226 1 240 103 8 94 49 57 239 185 203 130 131 18 165 219 52 78 51 6 225 165 63 233 101 243 8 237 184 185 182 154 186 95 23 59 78 89 4 201 144 203 96 186 212 16 6 223 103 250 13 49 30 250 7 187 249 45 58 59 199 158 74 229 187 53 217 7 148 126 68 20 234 66 184 243 224 154 228 131 66 83 193 170 116 142 202 16 198 179 109 225 111 228 37 122 149 79 20 182 132 191 90 44 225 140 91 62 116 90 248 108 72 237 6 27 169 224 254 147 54 100 132 249 76 132 51 56 40 37 81 237 141 38 92 92 184 80 108 67 19 35 227 240 132 250 197 3 242 236 169 90 217 207 119 246 246 2 137 210 79 95 40 215 84 101 175 46 81 55 70 122 182 37 187 97 121 1 189 250 138 54 221 140 160 206 38 83 150 84 3 209 81 24 151 138 133 165 253 30 22 198 98 192 199 100 235 199 125 95 236 156 180 44 91 160 89 218 117 103 44 26 150 174 41 176 183 49 137 221 168 86 175 250 61 120 113 184 187 50 138 237 3 196 110 223 216 253 199 190 110 81 34 26 28 150 74 206 208 187 151 232 38 224 142 216 64 226 52 66 69 183 137 37 217 121 167 247 112 85 225 176 139 193 186 132 155 65 52 78 162 114 47 50 136 49 216 132 87 160 27 14 45 130 246 5 226 152 13 100 147 225 175 109 222 37 41 108 48 135 98 184 167 130 221 223 7 188 92 93 216 38 196 84 87 239 12 225 86 227 120 239 224 173 122 5 112 14 126 38 137 225 31 199 176 81 103 127 47 115 196 3 63 244 71 45 101 39 210 205 140 171 57 195 218 104 63 112 40 8 64 113 253 43 56 151 84 233 58 219 251 183 125 54 241 212 193 8 39 110 115 251 69 140 212 83 112 51 254 70 21 178 161 130 24 239 37 145 165 252 232 111 30 211 71 77 173 13 88 50 79 216 135 232 108 125 215 101 232 217 220 209 224 180 103 54 211 85 199 17 210 49 7 88 226 198 200 213 88 253 29 121 135 5 231 167 13 62 255 255 105 58 93 2 243 188 112 1 102 37 166 109 17 192 107 205 2 177 136 35 110 228 192 213 117 140 109 220 240 26 4 0 20 241 28 55 145 146 141 117 215 111 117 58 9 19 162 101 145 182 206 170 175 181 123 165 239 175 212 39 205 137 253 209 45 13 65 217 177 51 227 13 214 227 160 234 80 162 159 17 124 150 255 215 18 248 105 212 233 188 53 150 109 189 0 48 215 198 165 239 224 208 23 54 252 29 54 72 173 50 235 81 94 246 98 195 71 223 28 98 247 0 159 213 85 25 120 168 182 82 147 224 91 211 120 129 200 196 180 113 249 214 45 25 35 64 71 253 111 180 195 103 115 116 159 22 162 203 180 4 134 13 144 105 113 132 16 61 37 152 176 159 182 113 108 111 211 253 104 19 63 150 119 219 27 155 247 58 8 217 80 193 200 56 60 74 46 9 73 112 126 25 60 49 160 105 67 11 170 111 7 169 56 43 54 247 187 236 229 7 73 242 15 235 150 122 146 6 107 97 202 239 11 222 67 49 189 197 211 22 151 105 250 230 80 59 220 175 146 176 52 112 54 16 3 99 78 104 35 134 151 87 94 154 36 10 122 252 29 115 174 162 26 81 235 30 125 88 42 31 57 43 106 248 40 166 255 55 75 103 93 69 73 240 85 107 219 14 207 36 117 13 12 149 89 144 154 125 46 185 98 145 92 212 5 42 245 100 0 249 72 251 224 19 87 102 1 23 143 198 214 20 210 244 254 228 29 94 50 255 93 196 72 135 170 127 109 151 60 45 238 189 116 51 31 193 41 213 18 224 86 76 78 203 244 152 79 235 99 50 191 202 53 170 164 229 232 23 0 192 48 5 16 34 238 90 97 65 180 171 0 215 98 194 139 59 88 150 205 198 11 178 23 6 88 110 14 103 156 10 220 214 61 14 230 230 41 56 140 48 149 191 144 218 12 33 153 179 187 218 194 43 174 201 8 119 246 12 41 40 205 17 128 201 201 135 224 69 207 33 198 172 86 147 195 156 246 155 69 215 164 205 187 93 142 192 33 160 13 71 99 244 195 209 130 186 213 218 240 53 194 197 229 20 123 241 7 188 183 219 131 191 195 66 33 122 45 209 146 178 243 220 71 180 143 82 207 248 196 0 136 18 7 41 93 37 231 81 41 31 174 90 204 228 152 216 100 89 78 63 142 93 151 208 90 255 84 34 135 78 239 19 33 13 113 16 189 51 233 240 252 173 214 241 207 42 209 202 33 246 44 158 129 77 78 160 117 237 149 29 74 234 180 150 31 183 115 17 183 55 49 150 85 214 142 68 39 210 159 76 50 12 25 189 27 8 93 159 73 243 148 72 61 224 128 250 108 35 74 158 222 62 16 151 249 79 87 145 219 192 19 25 240 69 142 195 93 64 164 136 166 118 246 21 0 60 176 75 14 36 73 5 0 152 69 3 112 161 198 108 56 208 115 192 140 25 65 90 14 122 216 187 105 197 88 186 33 6 85 208 195 9 66 115 166 172 202 5 5 115 15 59 163 22 6 250 46 207 13 83 203 40 12 238 250 138 172 78 161 174 143 249 92 88 109 119 179 232 214 28 168 129 28 159 147 139 54 94 196 134 162 36 149 233 206 247 8 63 106 225 171 169 59 133 101 2 55 191 212 171 167 86 162 247 179 237 152 202 226 208 50 25 108 6 155 94 59 206 249 52 248 98 192 58 51 190 250 99 243 59 60 239 168 26 58 39 132 90 39 25 178 219 223 166 13 54 138 49 30 109 167 219 85 150 65 42 32 39 215 228 55 34 200 93 220 227 61 123 247 174 183 243 253 131 48 216 195 11 78 113 10 148 39 54 206 179 174 9 81 104 217 254 43 232 76 57 65 107 132 189 247 140 53 189 97 105 10 47 6 252 138 17 74 234 239 122 144 228 144 229 45 142 139 112 127 33 121 108 62 121 167 145 12 241 214 197 54 64 219 225 49 193 72 111 140 93 109 92 166 254 137 249 117 184 122 157 213 74 255 19 68 77 51 16 21 53 38 40 102 214 191 234 232 62 210 8 200 1 211 149 241 38 108 74 121 231 27 176 23 180 25 214 217 56 80 34 87 231 231 66 208 106 159 79 204 252 21 188 248 142 164 231 175 218 68 47 249 93 240 21 232 231 172 22 47 195 191 161 61 157 18 147 49 228 214 159 247 141 56 31 242 118 63 98 244 81 50 172 174 195 249 126 119 118 161 15 70 74 47 180 41 172 184 102 179 23 17 150 182 115 84 155 250 6 184 239 79 140 135 131 203 93 197 201 143 57 21 137 3 161 63 248 87 130 245 22 244 66 102 7 100 39 15 8 129 106 8 167 74 4 222 235 250 53 242 134 177 210 228 100 205 22 208 189 169 32 145 168 131 8 105 170 124 25 64 75 251 58 135 32 219 239 92 240 32 130 165 44 104 79 117 20 225 88 4 202 78 102 253 61 166 141 58 196 182 200 218 119 135 70 138 246 181 29 135 99 189 196 165 112 233 166 76 109 13 227 128 239 76 98 246 78 92 151 17 45 127 61 105 41 16 101 22 248 120 126 111 153 157 15 111 38 255 167 138 61 48 25 238 224 177 167 100 240 242 15 39 97 59 157 237 203 160 149 243 173 129 109 45 217 237 69 245 147 71 131 100 162 186 86 135 41 18 101 67 209 33 254 109 49 140 142 149 92 96 65 35 142 166 112 12 185 163 226 39 31 92 183 116 84 47 219 214 183 15 45 42 5 255 204 90 136 202 181 206 136 77 146 116 171 31 207 175 43 207 56 21 40 156 182 120 234 69 159 6 171 118 46 205 205 149 99 4 250 27 181 98 38 123 254 65 135 126 69 85 32 167 14 179 112 226 173 147 25 203 9 88 123 49 102 159 226 144 143 78 232 214 107 149 94 206 157 190 112 202 229 11 21 135 235 93 46 221 76 51 197 123 187 181 69 129 4 203 227 64 33 136 161 119 101 56 113 245 76 77 90 162 33 247 77 57 40 99 30 219 206 127 222 182 120 196 238 235 124 93 98 252 139 106 186 44 138 233 81 240 202 121 80 195 118 24 58 201 86 37 140 11 53 115 151 31 37 135 213 255 157 111 238 79 249 146 76 232 125 124 94 81 79 74 66 143 67 252 146 234 74 239 105 0 246 9 68 153 108 202 100 82 149 30 72 77 171 24 68 30 69 129 56 252 69 246 143 104 212 200 211 146 197 163 248 240 22 33 199 60 35 208 148 16 23 89 48 62 233 185 178 164 159 182 208 26 154 168 158 55 61 183 166 112 188 8 132 145 251 131 195 88 94 64 199 175 198 129 43 152 148 96 8 64 70 162 239 180 62 231 169 180 178 99 41 74 81 29 30 109 7 239 26 225 11 229 119 22 16 215 88 10 122 93 184 110 239 89 85 70 101 30 169 253 116 11 34 142 201 90 219 31 208 223 90 125 152 111 116 220 205 118 20 30 176 87 59 107 129 137 30 7 5 134 209 102 172 232 37 195 226 84 11 155 194 25 29 69 249 48 213 130 211 11 86 230 23 24 158 50 219 125 240 166 176 132 111 51 121 109 201 162 98 4 146 118 224 146 242 70 243 213 140 194 215 2 198 68 167 144 16 35 171 40 236 250 62 68 208 229 13 15 255 125 70 249 237 242 0 110 225 123 250 65 224 141 13 222 14 249 151 39 176 179 236 253 64 58 182 13 124 54 192 19 73 31 74 179 28 32 82 102 239 188 161 236 69 49 143 254 115 158 142 99 6 13 185 154 175 239 176 4 47 68 58 67 98 52 211 126 129 164 176 162 90 105 243 56 46 3 118 12 162 2 184 136 239 248 57 31 27 159 7 201 248 252 143 57 215 190 127 87 246 188 244 148 12 240 240 147 114 149 115 65 129 176 214 3 216 150 194 39 37 83 225 5 134 111 81 244 252 106 174 125 100 84 174 232 127 108 187 18 37 232 235 239 13 1 183 212 130 95 250 107 236 145 253 216 19 101 23 253 41 91 23 12 141 241 135 238 93 147 118 251 100 82 179 54 210 107 157 169 130 31 253 239 220 77 22 156 150 237 109 156 103 111 89 243 116 231 87 76 13 141 117 191 9 200 228 213 110 209 126 186 84 240 245 73 120 181 116 121 107 2 140 15 94 10 199 130 95 68 46 57 210 186 139 224 51 148 24 109 75 63 10 182 93 40 1 37 84 108 206 151 192 144 197 185 41 243 204 217 35 164 3 30 72 246 103 196 73 153 231 232 135 30 38 83 50 138 239 102 33 190 147 71 227 172 29 205 234 45 3 124 66 50 71 30 62 44 124 103 251 197 139 94 143 252 187 99 128 215 43 113 205 144 158 99 11 231 78 181 108 240 9 243 94 34 20 190 75 207 113 165 204 199 20 207 190 186 168 44 95 112 197 246 219 201 34 119 56 117 152 231 238 185 198 148 172 52 47 5 255 88 91 220 17 178 19 40 237 207 224 135 139 159 45 175 127 180 167 12 32 159 238 243 48 204 232 40 180 101 75 170 25 169 218 111 211 214 19 253 123 189 199 26 161 138 8 102 35 86 143 87 39 229 138 154 180 237 62 87 84 3 228 36 185 44 94 162 180 248 146 156 150 183 91 194 6 101 114 6 175 133 35 89 60 70 200 247 216 227 131 215 144 148 94 63 209 76 83 156 73 159 147 35 254 227 104 50 246 250 193 189 242 2 173 50 131 70 115 194 217 26 199 4 48 150 184 69 74 200 31 4 189 228 15 209 87 253 239 36 151 245 49 186 102 13 20 2 48 122 108 13 128 76 141 82 247 9 139 172 85 98 62 36 162 203 202 220 64 77 150 47 4 3 93 14 234 166 32 231 252 172 217 204 29 250 216 240 95 210 195 125 159 102 222 216 203 129 184 77 93 159 0 18 169 227 58 97 51 41 24 123 145 33 49 81 54 6 161 244 106 135 124 224 169 62 215 139 54 240 122 180 126 53 244 227 52 116 203 232 193 55 146 15 187 145 183 190 120 60 249 255 55 232 58 43 190 10 35 228 224 193 101 44 249 36 75 60 69 27 194 229 100 4 27 16 140 115 65 121 113 63 19 135 79 138 192 167 200 86 141 131 109 3 234 22 246 146 107 46 250 72 87 15 8 143 3 239 33 226 149 251 41 230 115 85 34 212 140 207 53 83 129 134 111 69 69 98 14 112 252 160 164 92 154 160 136 96 6 164 245 21 144 124 87 60 135 150 189 4 80 61 173 190 128 23 32 12 181 176 139 146 101 77 99 52 252 92 68 182 23 255 81 223 234 219 5 104 253 224 6 91 226 136 8 218 118 146 74 72 190 247 252 93 244 200 202 23 143 179 32 118 88 187 36 127 97 38 27 129 154 180 9 159 155 23 31 145 24 136 196 1 115 23 236 81 73 209 224 18 219 45 45 22 27 160 125 253 195 88 206 22 229 139 180 94 140 16 199 222 46 81 125 103 200 124 226 134 46 151 162 233 85 66 129 96 75 197 254 215 217 196 226 43 6 40 0 160 13 169 133 36 24 78 8 119 137 25 37 25 129 185 120 23 40 31 91 93 243 138 142 253 193 32 116 65 125 29 186 216 112 129 220 34 202 4 120 181 114 205 219 18 229 136 66 62 233 72 56 70 213 142 226 50 130 32 232 124 45 165 21 69 164 158 88 2 168 236 62 50 202 49 31 215 101 80 216 181 215 45 217 146 65 89 95 207 247 210 128 206 253 224 177 199 70 69 216 186 31 98 21 32 21 130 153 1 14 17 25 187 210 3 86 38 204 164 206 124 152 23 194 248 132 1 42 90 86 83 101 89 194 136 155 3 94 226 56 17 51 199 107 69 129 71 70 11 68 153 11 15 242 89 13 185 37 31 78 203 86 238 10 34 216 16 1 146 158 127 76 223 94 121 252 20 198 94 221 25 168 102 239 236 39 174 245 132 137 3 190 233 32 112 235 6 65 128 61 25 145 45 241 4 156 149 240 214 213 90 138 176 248 235 249 34 81 141 108 154 208 147 180 146 125 165 106 128 92 78 230 48 102 105 248 179 30 52 250 15 200 100 215 137 113 251 82 47 130 245 151 215 90 244 205 30 95 161 232 80 243 13 184 188 224 82 173 95 145 194 9 223 91 139 22 194 107 103 150 243 9 161 188 89 19 228 190 153 16 35 42 39 156 168 52 235 69 111 192 141 119 56 6 115 244 161 118 249 97 161 88 227 126 225 122 39 204 143 134 190 33 13 69 134 55 25 45 171 68 77 165 244 251 78 121 69 217 122 74 198 22 140 5 161 133 210 124 202 214 159 235 227 77 221 222 201 211 246 140 60 178 25 33 114 33 19 12 90 238 230 1 178 195 15 145 223 88 193 88 58 52 78 156 128 73 27 109 161 108 51 39 29 39 149 6 137 177 137 199 35 182 178 33 86 69 59 169 207 19 37 120 156 72 166 155 52 178 164 123 10 176 69 248 96 174 174 44 212 128 233 168 174 143 72 3 10 125 94 153 94 203 172 253 177 66 100 1 99 166 20 220 91 255 144 149 0 54 107 113 204 124 226 121 238 214 245 105 7 135 54 55 67 138 2 231 47 200 156 48 230 194 81 37 85 133 244 164 144 246 59 42 164 244 160 59 133 38 44 47 115 231 104 33 0 113 112 6 191 53 222 56 31 151 146 79 14 108 193 208 11 244 39 166 90 198 138 245 216 220 14 55 41 113 13 28 109 148 169 198 87 199 253 231 246 45 12 234 78 206 61 46 33 114 222 37 227 74 123 21 117 215 49 0 134 221 33 10 158 205 56 148 79 30 123 3 201 96 226 24 122 134 178 134 132 38 206 66 117 30 44 161 221 153 232 9 36 59 84 141 108 7 163 39 247 148 140 89 137 84 195 29 138 101 73 111 88 251 229 0 205 123 96 208 128 75 86 101 16 132 169 213 176 114 137 78 248 243 225 58 9 38 6 52 35 253 157 205 27 29 146 62 105 111 152 151 39 232 118 40 141 157 59 88 89 145 5 155 223 226 149 188 108 174 111 184 215 100 86 107 253 143 94 61 203 5 6 139 226 9 58 37 187 120 49 247 52 11 8 17 22 174 21 227 102 201 55 213 55 159 77 157 228 29 162 2 253 37 54 194 13 72 128 37 171 40 73 126 223 59 200 76 223 38 47 68 58 3 27 129 231 232 121 254 141 4 218 177 232 36 175 134 43 225 175 113 66 65 0 178 48 91 97 197 79 79 213 97 247 35 1 89 69 172 17 141 7 32 84 164 143 122 35 154 179 179 88 102 53 98 235 65 28 141 69 214 248 151 120 101 26 188 155 175 25 62 215 255 236 217 242 152 229 34 135 196 202 101 93 14 78 20 145 142 192 168 188 195 34 184 202 160 119 105 48 86 47 162 71 145 13 74 139 104 10 185 78 18 117 136 65 215 175 59 105 93 204 86 226 214 112 45 249 73 153 19 244 113 231 182 118 151 103 34 198 55 152 78 79 163 89 1 6 214 28 200 55 95 212 207 136 225 79 145 112 25 64 84 238 68 78 110 95 134 191 69 19 57 169 3 94 148 70 66 227 28 71 122 122 120 30 196 110 127 51 41 70 177 53 191 192 176 240 204 105 240 191 103 143 164 46 179 81 11 243 213 207 78 17 166 182 23 95 184 164 138 84 161 161 84 198 213 83 110 232 80 167 218 227 25 19 95 159 54 130 32 235 19 80 35 76 207 62 177 231 8 1 214 23 143 187 109 4 105 74 243 107 146 69 211 114 65 79 15 111 201 114 65 27 142 230 120 122 14 85 33 249 87 174 69 40 82 79 185 189 239 87 93 88 14 138 32 105 73 148 84 1 255 225 86 197 161 119 103 174 38 53 111 93 108 251 157 179 143 217 110 133 224 27 96 128 197 126 54 0 170 189 61 27 123 239 102 184 142 231 136 41 24 16 199 47 136 194 190 70 171 241 57 34 31 202 130 77 97 150 139 208 213 241 28 75 180 168 158 69 165 70 111 249 251 227 204 187 205 242 0 172 181 57 102 143 207 152 12 169 38 129 147 124 164 62 98 230 247 245 234 167 94 211 99 134 220 20 241 50 140 104 17 87 25 82 248 51 192 177 96 161 224 8 112 252 66 96 61 123 48 42 15 19 161 126 232 107 91 105 252 218 194 112 106 249 76 246 27 244 93 153 159 244 247 3 68 33 119 75 191 201 200 202 4 52 132 151 173 126 29 57 140 164 249 18 254 57 60 174 32 68 158 167 43 160 46 51 82 237 76 99 117 30 122 112 160 203 74 179 137 114 165 216 240 211 114 192 114 22 203 198 234 188 41 194 233 189 235 66 51 144 169 149 255 179 188 136 79 118 22 229 34 55 36 174 82 66 145 243 29 144 108 217 211 200 43 169 65 6 136 125 137 67 187 186 167 196 91 184 244 214 129 74 115 56 179 72 200 46 118 90 240 201 73 62 117 4 19 189 7 119 241 8 191 132 189 175 137 231 121 106 69 145 177 205 116 120 175 2 78 77 235 120 134 65 243 242 48 231 115 76 168 116 230 222 80 135 129 4 221 9 159 230 187 15 71 131 195 235 118 173 175 126 178 168 8 136 54 178 31 79 73 54 34 222 49 2 55 57 22 227 240 180 4 105 206 137 58 197 154 144 119 20 225 206 234 66 51 138 243 132 180 71 135 76 68 87 158 235 4 219 103 71 63 192 217 76 117 99 111 166 209 254 93 241 38 7 245 183 42 96 54 66 129 137 198 78 187 187 89 199 240 245 148 95 106 113 123 71 116 114 156 240 212 214 239 12 54 239 105 182 133 162 165 214 127 159 187 214 205 230 132 60 236 134 96 231 154 66 240 138 91 136 216 248 121 155 65 19 9 73 50 37 33 121 80 81 186 152 45 200 231 55 67 173 218 210 204 20 36 156 132 198 170 90 96 128 193 242 251 250 162 179 113 125 43 223 29 141 175 234 37 139 25 31 4 166 53 33 30 25 86 36 141 157 39 58 156 236 68 255 94 211 189 69 244 124 218 190 50 72 97 27 124 116 250 175 4 18 128 23 43 12 99 103 50 99 76 177 156 198 150 212 233 48 195 44 32 154 47 207 210 186 95 82 209 13 107 129 3 129 140 100 56 50 72 59 84 36 225 163 128 154 229 220 83 1 222 67 223 229 82 56 54 137 70 102 208 53 48 60 243 187 106 183 111 170 197 129 182 141 124 172 105 101 121 96 190 193 23 38 6 166 115 127 51 155 72 150 146 100 96 196 172 127 205 177 69 48 214 189 31 176 164 221 237 235 174 52 72 18 76 161 189 225 76 201 14 114 213 35 93 79 229 68 143 138 7 16 16 103 96 155 251 123 145 49 73 100 48 247 79 33 34 205 151 67 160 71 98 117 78 1 251 182 40 163 109 40 47 58 215 228 112 38 240 133 64 81 88 170 89 188 26 233 60 188 71 241 98 244 90 21 30 240 152 32 171 247 58 194 107 138 186 229 232 186 201 98 223 126 74 198 71 255 116 205 22 183 233 12 108 13 218 67 130 245 84 186 183 133 69 25 187 91 16 61 59 178 249 208 124 147 48 28 109 45 174 111 216 211 235 237 200 11 31 19 184 76 28 88 204 218 108 137 94 42 40 249 250 189 95 30 135 134 59 212 118 246 114 67 62 194 85 92 185 227 2 165 53 63 129 189 8 55 76 61 183 220 21 245 4 117 95 230 154 113 134 159 220 3 213 91 163 154 37 121 204 221 52 170 123 161 71 91 21 222 7 126 91 79 160 138 153 237 173 165 84 195 116 85 21 212 235 134 203 246 194 108 24 61 79 81 144 90 36 45 110 226 204 29 189 70 97 3 244 252 107 22 73 169 200 138 67 133 238 3 223 143 205 13 63 214 36 99 66 215 231 130 150 193 35 21 181 116 81 213 119 172 64 240 245 72 198 64 216 46 57 117 51 3 235 186 69 113 234 167 5 132 201 179 172 1 160 56 71 99 0 38 27 64 212 194 197 139 16 204 114 134 214 63 149 124 178 17 233 106 184 165 168 4 211 147 125 172 68 106 162 17 60 241 89 48 77 192 248 167 248 6 87 66 32 73 63 172 17 206 10 124 207 93 172 51 88 173 120 103 182 139 182 69 117 62 179 229 73 255 83 187 238 6 254 167 63 15 120 31 43 56 109 2 188 13 134 22 2 78 190 200 223 168 194 89 204 5 32 168 19 1 141 205 173 75 79 107 68 41 38 168 243 19 195 90 84 5 199 36 243 133 1 21 202 76 77 34 131 157 178 3 234 124 74 0 48 31 75 243 228 119 8 200 182 222 137 128 124 80 148 150 61 244 41 159 49 35 194 157 251 157 69 151 30 107 44 84 35 3 253 223 57 99 22 32 105 114 226 89 126 162 99 185 199 5 218 196 16 57 216 204 128 247 102 231 163 166 100 210 91 153 163 135 172 19 48 93 138 184 231 52 48 126 132 84 139 180 244 233 224 223 144 1 131 220 186 83 107 106 141 242 231 103 139 174 109 97 97 242 193 159 177 209 181 97 13 223 83 196 165 141 228 238 133 25 56 196 230 238 110 87 36 18 92 220 147 70 190 204 195 237 82 224 134 255 140 164 160 64 42 240 47 192 179 190 28 77 37 32 173 223 231 120 238 95 164 79 173 65 107 146 17 62 193 145 202 134 143 182 236 49 226 228 211 2 61 4 164 254 243 239 117 78 215 219 142 227 116 135 187 75 6 135 138 52 103 187 103 7 173 244 204 90 172 198 82 6 161 241 18 10 211 158 158 116 62 2 164 173 211 127 122 139 67 29 104 70 105 240 175 119 37 83 237 151 132 116 243 253 12 37 47 61 239 221 171 128 185 86 113 161 67 190 222 0 81 71 103 55 93 225 134 232 29 90 178 122 171 207 78 146 7 64 255 150 176 53 70 253 129 75 211 173 181 46 65 155 176 236 75 161 192 65 102 34 97 129 185 15 71 54 152 0 41 140 175 9 104 125 78 121 145 110 9 249 136 110 154 65 192 14 145 220 246 98 109 129 207 173 152 10 102 110 209 153 50 2 223 118 32 34 36 132 29 36 122 136 68 68 199 182 122 168 238 194 119 149 13 76 94 41 200 253 227 16 164 133 233 112 230 12 51 58 23 45 155 132 163 165 121 146 169 73 226 11 68 219 217 221 122 249 135 134 125 3 36 99 254 89 243 147 211 56 15 39 223 21 26 60 95 141 36 241 5 91 204 226 26 61 16 114 26 241 138 134 144 103 73 45 29 7 174 53 66 197 43 50 241 53 71 189 206 144 45 39 53 26 53 149 120 55 187 37 214 78 90 109 122 104 105 245 105 205 7 239 237 179 44 154 221 39 64 21 28 213 159 176 209 77 50 193 96 29 106 128 254 167 4 64 151 118 66 242 177 162 53 241 151 194 120 186 53 162 74 169 73 135 13 241 71 174 233 118 134 71 184 135 244 229 180 247 204 208 115 191 101 234 174 82 231 190 27 52 207 26 226 226 70 22 8 173 99 127 255 89 241 62 157 240 243 138 83 154 38 51 26 244 12 42 39 72 76 109 183 120 219 189 10 100 100 142 62 61 80 234 24 129 123 166 97 248 188 179 244 94 200 16 203 71 150 170 100 121 235 194 99 33 211 113 72 141 198 242 212 232 224 67 8 232 85 171 226 231 16 240 164 99 49 38 78 238 150 162 41 235 38 147 113 48 235 58 235 59 171 88 2 45 85 87 145 130 1 116 86 236 142 119 253 187 45 120 201 83 153 178 2 219 200 230 150 157 61 49 1 102 120 17 216 93 99 53 87 90 12 135 65 155 39 252 93 164 33 47 13 58 155 101 32 175 205 209 253 15 112 4 183 223 59 29 218 202 190 101 127 69 159 169 64 213 112 254 106 251 231 121 188 139 11 211 136 151 94 184 195 160 178 199 96 95 9 167 60 189 13 19 193 72 74 95 153 112 73 54 232 227 107 130 180 195 135 76 125 243 20 109 216 188 223 106 178 61 99 247 187 114 26 92 110 137 91 76 78 103 253 216 185 131 9 226 84 3 71 111 22 40 28 137 123 236 204 33 140 127 213 95 107 23 234 25 155 35 205 128 218 70 36 61 249 26 100 8 163 171 121 213 254 228 137 114 6 15 166 101 68 34 199 89 106 230 55 200 249 4 112 137 100 171 192 79 179 244 235 239 184 200 66 115 60 251 60 140 95 223 64 24 152 24 250 161 204 182 120 144 237 131 58 130 56 196 217 35 68 233 66 207 244 202 132 246 70 28 116 143 162 69 224 198 159 237 76 64 184 247 208 32 27 205 232 208 89 160 231 224 245 16 38 181 223 25 173 239 239 100 208 141 31 228 148 133 223 212 157 69 27 12 57 5 120 96 70 254 47 13 36 105 142 254 238 73 98 66 44 72 235 49 203 181 163 196 172 39 229 168 130 190 80 79 154 84 3 230 13 42 86 191 117 243 177 182 144 141 216 238 150 122 254 85 232 121 158 137 218 3 70 199 215 246 35 10 242 171 29 233 28 46 161 205 230 159 73 212 82 119 56 9 141 216 152 185 53 30 196 77 107 241 48 124 204 159 83 164 88 17 78 127 131 180 199 242 235 201 53 223 157 242 176 87 114 232 106 48 92 131 225 42 212 112 187 198 28 121 73 183 216 239 46 45 110 32 112 212 213 11 219 105 43 107 158 44 155 87 6 56 18 189 234 130 120 98 59 163 242 164 121 206 24 116 216 113 81 117 170 79 238 116 19 220 80 21 66 49 14 87 206 27 28 225 233 109 171 171 2 99 230 176 118 235 69 31 43 116 121 123 27 162 8 187 157 120 130 226 241 120 152 184 87 142 89 197 149 197 124 52 70 65 84 159 222 213 169 123 22 43 21 120 102 187 177 128 2 85 74 39 13 104 7 254 84 212 94 95 44 124 178 249 142 74 16 158 87 214 29 173 254 214 237 32 190 81 149 31 45 240 50 215 228 69 176 228 26 39 57 209 152 39 62 232 30 70 72 205 34 149 162 147 104 77 252 156 170 110 163 156 126 105 95 220 9 196 3 97 176 179 40 117 13 145 249 120 53 114 121 102 136 196 31 255 6 180 18 194 78 112 150 230 50 36 190 215 56 85 222 178 142 226 106 212 62 16 158 13 114 201 148 157 111 102 43 211 28 108 167 181 60 82 184 